<mxfile host="app.diagrams.net" agent="Mozilla/5.0 (Windows NT 10.0; Win64; x64) AppleWebKit/537.36 (KHTML, like Gecko) Chrome/138.0.0.0 Safari/537.36" version="28.0.4">
  <diagram id="C5RBs43oDa-KdzZeNtuy" name="Page-1">
    <mxGraphModel dx="5113" dy="1737" grid="1" gridSize="10" guides="1" tooltips="1" connect="1" arrows="1" fold="1" page="1" pageScale="1" pageWidth="827" pageHeight="1169" math="0" shadow="0">
      <root>
        <mxCell id="WIyWlLk6GJQsqaUBKTNV-0" />
        <mxCell id="WIyWlLk6GJQsqaUBKTNV-1" parent="WIyWlLk6GJQsqaUBKTNV-0" />
        <mxCell id="M7CGMbNuYNeq0SnUNNgH-6" value="ทบทวนสัญลักษณ์" style="swimlane;fontFamily=Sarabun;fontSource=https%3A%2F%2Ffonts.googleapis.com%2Fcss%3Ffamily%3DSarabun;" parent="WIyWlLk6GJQsqaUBKTNV-1" vertex="1">
          <mxGeometry x="-720" y="20" width="650" height="290" as="geometry" />
        </mxCell>
        <mxCell id="M7CGMbNuYNeq0SnUNNgH-2" value="&lt;font data-font-src=&quot;https://fonts.googleapis.com/css?family=Sarabun&quot; face=&quot;Sarabun&quot;&gt;เริ่มต้น&lt;/font&gt;" style="ellipse;whiteSpace=wrap;html=1;" parent="M7CGMbNuYNeq0SnUNNgH-6" vertex="1">
          <mxGeometry x="20" y="40" width="130" height="30" as="geometry" />
        </mxCell>
        <mxCell id="M7CGMbNuYNeq0SnUNNgH-5" value="" style="endArrow=classic;html=1;rounded=0;" parent="M7CGMbNuYNeq0SnUNNgH-6" edge="1">
          <mxGeometry width="50" height="50" relative="1" as="geometry">
            <mxPoint x="84.5" y="70" as="sourcePoint" />
            <mxPoint x="84.5" y="120" as="targetPoint" />
          </mxGeometry>
        </mxCell>
        <mxCell id="M7CGMbNuYNeq0SnUNNgH-3" value="&lt;font face=&quot;Sarabun&quot;&gt;สิ้นสุด&lt;/font&gt;" style="ellipse;whiteSpace=wrap;html=1;" parent="M7CGMbNuYNeq0SnUNNgH-6" vertex="1">
          <mxGeometry x="150" y="90" width="130" height="30" as="geometry" />
        </mxCell>
        <mxCell id="M7CGMbNuYNeq0SnUNNgH-4" value="" style="endArrow=classic;html=1;rounded=0;" parent="M7CGMbNuYNeq0SnUNNgH-6" edge="1">
          <mxGeometry width="50" height="50" relative="1" as="geometry">
            <mxPoint x="214.5" y="40" as="sourcePoint" />
            <mxPoint x="214.5" y="90" as="targetPoint" />
          </mxGeometry>
        </mxCell>
        <mxCell id="mvioNwK95yMqdUQ73LqQ-0" value="กระบวนการ" style="rounded=0;whiteSpace=wrap;html=1;fontFamily=Sarabun;fontSource=https%3A%2F%2Ffonts.googleapis.com%2Fcss%3Ffamily%3DSarabun;" parent="M7CGMbNuYNeq0SnUNNgH-6" vertex="1">
          <mxGeometry x="320" y="70" width="120" height="30" as="geometry" />
        </mxCell>
        <mxCell id="mvioNwK95yMqdUQ73LqQ-1" value="" style="endArrow=classic;html=1;rounded=0;" parent="M7CGMbNuYNeq0SnUNNgH-6" edge="1">
          <mxGeometry width="50" height="50" relative="1" as="geometry">
            <mxPoint x="379" y="40" as="sourcePoint" />
            <mxPoint x="379.5" y="70" as="targetPoint" />
          </mxGeometry>
        </mxCell>
        <mxCell id="mvioNwK95yMqdUQ73LqQ-2" value="" style="endArrow=classic;html=1;rounded=0;" parent="M7CGMbNuYNeq0SnUNNgH-6" edge="1">
          <mxGeometry width="50" height="50" relative="1" as="geometry">
            <mxPoint x="379.75" y="100" as="sourcePoint" />
            <mxPoint x="380.25" y="130" as="targetPoint" />
          </mxGeometry>
        </mxCell>
        <mxCell id="mvioNwK95yMqdUQ73LqQ-3" value="ประโยคเงื่อนไข" style="rhombus;whiteSpace=wrap;html=1;fontFamily=Sarabun;fontSource=https%3A%2F%2Ffonts.googleapis.com%2Fcss%3Ffamily%3DSarabun;" parent="M7CGMbNuYNeq0SnUNNgH-6" vertex="1">
          <mxGeometry x="490" y="60" width="100" height="60" as="geometry" />
        </mxCell>
        <mxCell id="mvioNwK95yMqdUQ73LqQ-4" value="" style="endArrow=classic;html=1;rounded=0;" parent="M7CGMbNuYNeq0SnUNNgH-6" edge="1">
          <mxGeometry width="50" height="50" relative="1" as="geometry">
            <mxPoint x="539.71" y="30" as="sourcePoint" />
            <mxPoint x="540.21" y="60" as="targetPoint" />
          </mxGeometry>
        </mxCell>
        <mxCell id="mvioNwK95yMqdUQ73LqQ-5" value="" style="endArrow=classic;html=1;rounded=0;" parent="M7CGMbNuYNeq0SnUNNgH-6" edge="1">
          <mxGeometry width="50" height="50" relative="1" as="geometry">
            <mxPoint x="539.71" y="120" as="sourcePoint" />
            <mxPoint x="540" y="175" as="targetPoint" />
          </mxGeometry>
        </mxCell>
        <mxCell id="mvioNwK95yMqdUQ73LqQ-7" value="จริง" style="edgeLabel;html=1;align=center;verticalAlign=middle;resizable=0;points=[];fontFamily=Sarabun;fontSource=https%3A%2F%2Ffonts.googleapis.com%2Fcss%3Ffamily%3DSarabun;" parent="mvioNwK95yMqdUQ73LqQ-5" vertex="1" connectable="0">
          <mxGeometry x="-0.4142" y="-1" relative="1" as="geometry">
            <mxPoint as="offset" />
          </mxGeometry>
        </mxCell>
        <mxCell id="mvioNwK95yMqdUQ73LqQ-6" value="" style="endArrow=classic;html=1;rounded=0;exitX=1;exitY=0.5;exitDx=0;exitDy=0;" parent="M7CGMbNuYNeq0SnUNNgH-6" source="mvioNwK95yMqdUQ73LqQ-3" edge="1">
          <mxGeometry width="50" height="50" relative="1" as="geometry">
            <mxPoint x="620" y="95" as="sourcePoint" />
            <mxPoint x="610" y="175" as="targetPoint" />
            <Array as="points">
              <mxPoint x="610" y="90" />
            </Array>
          </mxGeometry>
        </mxCell>
        <mxCell id="mvioNwK95yMqdUQ73LqQ-8" value="&lt;font data-font-src=&quot;https://fonts.googleapis.com/css?family=Sarabun&quot; face=&quot;Sarabun&quot;&gt;เท็จ&lt;/font&gt;" style="edgeLabel;html=1;align=center;verticalAlign=middle;resizable=0;points=[];" parent="mvioNwK95yMqdUQ73LqQ-6" vertex="1" connectable="0">
          <mxGeometry x="-0.0019" y="-2" relative="1" as="geometry">
            <mxPoint as="offset" />
          </mxGeometry>
        </mxCell>
        <mxCell id="mvioNwK95yMqdUQ73LqQ-9" value="&lt;font data-font-src=&quot;https://fonts.googleapis.com/css?family=Sarabun&quot; face=&quot;Sarabun&quot;&gt;ฟังก์ชัน/โมดูล&lt;/font&gt;" style="shape=process;whiteSpace=wrap;html=1;backgroundOutline=1;" parent="M7CGMbNuYNeq0SnUNNgH-6" vertex="1">
          <mxGeometry x="25" y="180" width="120" height="30" as="geometry" />
        </mxCell>
        <mxCell id="mvioNwK95yMqdUQ73LqQ-11" value="" style="endArrow=classic;html=1;rounded=0;" parent="M7CGMbNuYNeq0SnUNNgH-6" edge="1">
          <mxGeometry width="50" height="50" relative="1" as="geometry">
            <mxPoint x="84.70999999999998" y="150" as="sourcePoint" />
            <mxPoint x="85.20999999999998" y="180" as="targetPoint" />
          </mxGeometry>
        </mxCell>
        <mxCell id="mvioNwK95yMqdUQ73LqQ-12" value="" style="endArrow=classic;html=1;rounded=0;" parent="M7CGMbNuYNeq0SnUNNgH-6" edge="1">
          <mxGeometry width="50" height="50" relative="1" as="geometry">
            <mxPoint x="84.70999999999998" y="210" as="sourcePoint" />
            <mxPoint x="85.20999999999998" y="240" as="targetPoint" />
          </mxGeometry>
        </mxCell>
        <mxCell id="mvioNwK95yMqdUQ73LqQ-13" value="" style="strokeWidth=2;html=1;shape=mxgraph.flowchart.start_2;whiteSpace=wrap;" parent="M7CGMbNuYNeq0SnUNNgH-6" vertex="1">
          <mxGeometry x="205" y="185" width="20" height="20" as="geometry" />
        </mxCell>
        <mxCell id="mvioNwK95yMqdUQ73LqQ-16" value="" style="endArrow=classic;html=1;rounded=0;" parent="M7CGMbNuYNeq0SnUNNgH-6" edge="1">
          <mxGeometry width="50" height="50" relative="1" as="geometry">
            <mxPoint x="214.70999999999998" y="155" as="sourcePoint" />
            <mxPoint x="215.20999999999998" y="185" as="targetPoint" />
          </mxGeometry>
        </mxCell>
        <mxCell id="mvioNwK95yMqdUQ73LqQ-17" value="" style="endArrow=classic;html=1;rounded=0;entryX=0;entryY=0.5;entryDx=0;entryDy=0;entryPerimeter=0;" parent="M7CGMbNuYNeq0SnUNNgH-6" target="mvioNwK95yMqdUQ73LqQ-13" edge="1">
          <mxGeometry width="50" height="50" relative="1" as="geometry">
            <mxPoint x="189.99999999999997" y="155" as="sourcePoint" />
            <mxPoint x="190.49999999999997" y="185" as="targetPoint" />
            <Array as="points">
              <mxPoint x="190" y="180" />
            </Array>
          </mxGeometry>
        </mxCell>
        <mxCell id="mvioNwK95yMqdUQ73LqQ-18" value="" style="endArrow=classic;html=1;rounded=0;entryX=1;entryY=0.5;entryDx=0;entryDy=0;entryPerimeter=0;" parent="M7CGMbNuYNeq0SnUNNgH-6" target="mvioNwK95yMqdUQ73LqQ-13" edge="1">
          <mxGeometry width="50" height="50" relative="1" as="geometry">
            <mxPoint x="239.99999999999997" y="155" as="sourcePoint" />
            <mxPoint x="240.49999999999997" y="185" as="targetPoint" />
            <Array as="points">
              <mxPoint x="240" y="180" />
            </Array>
          </mxGeometry>
        </mxCell>
        <mxCell id="mvioNwK95yMqdUQ73LqQ-19" value="" style="endArrow=classic;html=1;rounded=0;" parent="M7CGMbNuYNeq0SnUNNgH-6" edge="1">
          <mxGeometry width="50" height="50" relative="1" as="geometry">
            <mxPoint x="214.70999999999998" y="205" as="sourcePoint" />
            <mxPoint x="215.20999999999998" y="235" as="targetPoint" />
          </mxGeometry>
        </mxCell>
        <mxCell id="mvioNwK95yMqdUQ73LqQ-20" value="&lt;font data-font-src=&quot;https://fonts.googleapis.com/css?family=Sarabun&quot; face=&quot;Sarabun&quot;&gt;ตัวเชื่อม&lt;/font&gt;" style="text;html=1;align=center;verticalAlign=middle;resizable=0;points=[];autosize=1;strokeColor=none;fillColor=none;" parent="M7CGMbNuYNeq0SnUNNgH-6" vertex="1">
          <mxGeometry x="220" y="190" width="60" height="30" as="geometry" />
        </mxCell>
        <mxCell id="mvioNwK95yMqdUQ73LqQ-25" value="" style="endArrow=classic;html=1;rounded=0;" parent="M7CGMbNuYNeq0SnUNNgH-6" edge="1">
          <mxGeometry width="50" height="50" relative="1" as="geometry">
            <mxPoint x="353.71" y="165" as="sourcePoint" />
            <mxPoint x="354.21" y="195" as="targetPoint" />
          </mxGeometry>
        </mxCell>
        <mxCell id="mvioNwK95yMqdUQ73LqQ-21" value="" style="verticalLabelPosition=bottom;verticalAlign=top;html=1;shape=offPageConnector;rounded=0;size=0.5;" parent="M7CGMbNuYNeq0SnUNNgH-6" vertex="1">
          <mxGeometry x="339" y="195" width="30" height="30" as="geometry" />
        </mxCell>
        <mxCell id="mvioNwK95yMqdUQ73LqQ-26" value="" style="endArrow=classic;html=1;rounded=0;" parent="M7CGMbNuYNeq0SnUNNgH-6" edge="1">
          <mxGeometry width="50" height="50" relative="1" as="geometry">
            <mxPoint x="405.71" y="195" as="sourcePoint" />
            <mxPoint x="406.21" y="225" as="targetPoint" />
          </mxGeometry>
        </mxCell>
        <mxCell id="mvioNwK95yMqdUQ73LqQ-27" value="" style="verticalLabelPosition=bottom;verticalAlign=top;html=1;shape=offPageConnector;rounded=0;size=0.5;" parent="M7CGMbNuYNeq0SnUNNgH-6" vertex="1">
          <mxGeometry x="391" y="165" width="30" height="30" as="geometry" />
        </mxCell>
        <mxCell id="mvioNwK95yMqdUQ73LqQ-28" value="หน้าต่อไป" style="text;html=1;align=center;verticalAlign=middle;resizable=0;points=[];autosize=1;strokeColor=none;fillColor=none;fontFamily=Sarabun;fontSource=https%3A%2F%2Ffonts.googleapis.com%2Fcss%3Ffamily%3DSarabun;" parent="M7CGMbNuYNeq0SnUNNgH-6" vertex="1">
          <mxGeometry x="345" y="220" width="70" height="30" as="geometry" />
        </mxCell>
        <mxCell id="mvioNwK95yMqdUQ73LqQ-29" value="ก" style="text;html=1;align=center;verticalAlign=middle;resizable=0;points=[];autosize=1;strokeColor=none;fillColor=none;fontFamily=Sarabun;fontSource=https%3A%2F%2Ffonts.googleapis.com%2Fcss%3Ffamily%3DSarabun;" parent="M7CGMbNuYNeq0SnUNNgH-6" vertex="1">
          <mxGeometry x="339" y="190" width="30" height="30" as="geometry" />
        </mxCell>
        <mxCell id="mvioNwK95yMqdUQ73LqQ-30" value="ก" style="text;html=1;align=center;verticalAlign=middle;resizable=0;points=[];autosize=1;strokeColor=none;fillColor=none;fontFamily=Sarabun;fontSource=https%3A%2F%2Ffonts.googleapis.com%2Fcss%3Ffamily%3DSarabun;" parent="M7CGMbNuYNeq0SnUNNgH-6" vertex="1">
          <mxGeometry x="391" y="160" width="30" height="30" as="geometry" />
        </mxCell>
        <mxCell id="mvioNwK95yMqdUQ73LqQ-32" value="แสดงผล/รับค่า" style="shape=parallelogram;perimeter=parallelogramPerimeter;whiteSpace=wrap;html=1;fixedSize=1;fontFamily=Sarabun;fontSource=https%3A%2F%2Ffonts.googleapis.com%2Fcss%3Ffamily%3DSarabun;" parent="M7CGMbNuYNeq0SnUNNgH-6" vertex="1">
          <mxGeometry x="450" y="210" width="120" height="30" as="geometry" />
        </mxCell>
        <mxCell id="mvioNwK95yMqdUQ73LqQ-33" value="" style="endArrow=classic;html=1;rounded=0;" parent="M7CGMbNuYNeq0SnUNNgH-6" edge="1">
          <mxGeometry width="50" height="50" relative="1" as="geometry">
            <mxPoint x="509.71" y="180" as="sourcePoint" />
            <mxPoint x="510.21" y="210" as="targetPoint" />
          </mxGeometry>
        </mxCell>
        <mxCell id="mvioNwK95yMqdUQ73LqQ-34" value="" style="endArrow=classic;html=1;rounded=0;" parent="M7CGMbNuYNeq0SnUNNgH-6" edge="1">
          <mxGeometry width="50" height="50" relative="1" as="geometry">
            <mxPoint x="509.71" y="240" as="sourcePoint" />
            <mxPoint x="510.21" y="270" as="targetPoint" />
          </mxGeometry>
        </mxCell>
        <mxCell id="mvioNwK95yMqdUQ73LqQ-36" value="แก้ไขโจทย์ปัญหา" style="swimlane;fontFamily=Sarabun;fontSource=https%3A%2F%2Ffonts.googleapis.com%2Fcss%3Ffamily%3DSarabun;" parent="WIyWlLk6GJQsqaUBKTNV-1" vertex="1">
          <mxGeometry x="-730" y="650" width="970" height="1670" as="geometry" />
        </mxCell>
        <mxCell id="Y_5bH8ewrt_cbjXBQILO-9" style="edgeStyle=orthogonalEdgeStyle;rounded=0;orthogonalLoop=1;jettySize=auto;html=1;entryX=0.5;entryY=0;entryDx=0;entryDy=0;" edge="1" parent="mvioNwK95yMqdUQ73LqQ-36" source="mvioNwK95yMqdUQ73LqQ-35" target="Y_5bH8ewrt_cbjXBQILO-0">
          <mxGeometry relative="1" as="geometry" />
        </mxCell>
        <mxCell id="mvioNwK95yMqdUQ73LqQ-35" value="&lt;font data-font-src=&quot;https://fonts.googleapis.com/css?family=Sarabun&quot; face=&quot;Sarabun&quot;&gt;เริ่มต้น&lt;/font&gt;" style="ellipse;whiteSpace=wrap;html=1;" parent="mvioNwK95yMqdUQ73LqQ-36" vertex="1">
          <mxGeometry x="237.5" y="40" width="130" height="30" as="geometry" />
        </mxCell>
        <mxCell id="mvioNwK95yMqdUQ73LqQ-69" value="&lt;font face=&quot;Sarabun&quot;&gt;สิ้นสุด&lt;/font&gt;" style="ellipse;whiteSpace=wrap;html=1;" parent="mvioNwK95yMqdUQ73LqQ-36" vertex="1">
          <mxGeometry x="255" y="1620" width="130" height="30" as="geometry" />
        </mxCell>
        <mxCell id="Y_5bH8ewrt_cbjXBQILO-4" style="edgeStyle=orthogonalEdgeStyle;rounded=0;orthogonalLoop=1;jettySize=auto;html=1;entryX=0.5;entryY=0;entryDx=0;entryDy=0;" edge="1" parent="mvioNwK95yMqdUQ73LqQ-36" source="Y_5bH8ewrt_cbjXBQILO-0" target="Y_5bH8ewrt_cbjXBQILO-3">
          <mxGeometry relative="1" as="geometry" />
        </mxCell>
        <mxCell id="Y_5bH8ewrt_cbjXBQILO-7" style="edgeStyle=orthogonalEdgeStyle;rounded=0;orthogonalLoop=1;jettySize=auto;html=1;entryX=0.5;entryY=0;entryDx=0;entryDy=0;" edge="1" parent="mvioNwK95yMqdUQ73LqQ-36" source="Y_5bH8ewrt_cbjXBQILO-0" target="Y_5bH8ewrt_cbjXBQILO-6">
          <mxGeometry relative="1" as="geometry" />
        </mxCell>
        <mxCell id="Y_5bH8ewrt_cbjXBQILO-0" value="Have instant noodles?" style="rhombus;whiteSpace=wrap;html=1;" vertex="1" parent="mvioNwK95yMqdUQ73LqQ-36">
          <mxGeometry x="242.5" y="90" width="120" height="80" as="geometry" />
        </mxCell>
        <mxCell id="Y_5bH8ewrt_cbjXBQILO-3" value="Have water?" style="rhombus;whiteSpace=wrap;html=1;" vertex="1" parent="mvioNwK95yMqdUQ73LqQ-36">
          <mxGeometry x="120" y="434" width="90" height="50" as="geometry" />
        </mxCell>
        <mxCell id="Y_5bH8ewrt_cbjXBQILO-5" value="Yes" style="text;html=1;align=center;verticalAlign=middle;resizable=0;points=[];autosize=1;strokeColor=none;fillColor=none;" vertex="1" parent="mvioNwK95yMqdUQ73LqQ-36">
          <mxGeometry x="197.5" y="103" width="40" height="30" as="geometry" />
        </mxCell>
        <mxCell id="Y_5bH8ewrt_cbjXBQILO-12" style="edgeStyle=orthogonalEdgeStyle;rounded=0;orthogonalLoop=1;jettySize=auto;html=1;entryX=0.5;entryY=0;entryDx=0;entryDy=0;exitX=0;exitY=0.5;exitDx=0;exitDy=0;" edge="1" parent="mvioNwK95yMqdUQ73LqQ-36" source="Y_5bH8ewrt_cbjXBQILO-6">
          <mxGeometry relative="1" as="geometry">
            <mxPoint x="369.5" y="180" as="sourcePoint" />
            <mxPoint x="343" y="230" as="targetPoint" />
            <Array as="points">
              <mxPoint x="343" y="180" />
            </Array>
          </mxGeometry>
        </mxCell>
        <mxCell id="Y_5bH8ewrt_cbjXBQILO-15" style="edgeStyle=orthogonalEdgeStyle;rounded=0;orthogonalLoop=1;jettySize=auto;html=1;entryX=0.5;entryY=0;entryDx=0;entryDy=0;" edge="1" parent="mvioNwK95yMqdUQ73LqQ-36" source="Y_5bH8ewrt_cbjXBQILO-6" target="Y_5bH8ewrt_cbjXBQILO-14">
          <mxGeometry relative="1" as="geometry">
            <Array as="points">
              <mxPoint x="530" y="180" />
            </Array>
          </mxGeometry>
        </mxCell>
        <mxCell id="Y_5bH8ewrt_cbjXBQILO-6" value="Have money?" style="rhombus;whiteSpace=wrap;html=1;" vertex="1" parent="mvioNwK95yMqdUQ73LqQ-36">
          <mxGeometry x="372.5" y="150" width="90" height="60" as="geometry" />
        </mxCell>
        <mxCell id="Y_5bH8ewrt_cbjXBQILO-19" style="edgeStyle=orthogonalEdgeStyle;rounded=0;orthogonalLoop=1;jettySize=auto;html=1;entryX=0.5;entryY=0;entryDx=0;entryDy=0;" edge="1" parent="mvioNwK95yMqdUQ73LqQ-36" source="Y_5bH8ewrt_cbjXBQILO-11" target="Y_5bH8ewrt_cbjXBQILO-18">
          <mxGeometry relative="1" as="geometry">
            <Array as="points">
              <mxPoint x="340" y="270" />
            </Array>
          </mxGeometry>
        </mxCell>
        <mxCell id="Y_5bH8ewrt_cbjXBQILO-11" value="Go to the market" style="whiteSpace=wrap;html=1;" vertex="1" parent="mvioNwK95yMqdUQ73LqQ-36">
          <mxGeometry x="291" y="230" width="110" height="20" as="geometry" />
        </mxCell>
        <mxCell id="Y_5bH8ewrt_cbjXBQILO-62" value="" style="edgeStyle=orthogonalEdgeStyle;rounded=0;orthogonalLoop=1;jettySize=auto;html=1;" edge="1" parent="mvioNwK95yMqdUQ73LqQ-36" source="Y_5bH8ewrt_cbjXBQILO-14" target="Y_5bH8ewrt_cbjXBQILO-61">
          <mxGeometry relative="1" as="geometry" />
        </mxCell>
        <mxCell id="Y_5bH8ewrt_cbjXBQILO-14" value="Call to the sibling &amp;amp; tell them that no money" style="whiteSpace=wrap;html=1;" vertex="1" parent="mvioNwK95yMqdUQ73LqQ-36">
          <mxGeometry x="450" y="210" width="160" height="30" as="geometry" />
        </mxCell>
        <mxCell id="Y_5bH8ewrt_cbjXBQILO-16" value="No" style="text;html=1;align=center;verticalAlign=middle;resizable=0;points=[];autosize=1;strokeColor=none;fillColor=none;" vertex="1" parent="mvioNwK95yMqdUQ73LqQ-36">
          <mxGeometry x="480" y="150" width="40" height="30" as="geometry" />
        </mxCell>
        <mxCell id="Y_5bH8ewrt_cbjXBQILO-17" value="Yes" style="text;html=1;align=center;verticalAlign=middle;resizable=0;points=[];autosize=1;strokeColor=none;fillColor=none;" vertex="1" parent="mvioNwK95yMqdUQ73LqQ-36">
          <mxGeometry x="300" y="190" width="40" height="30" as="geometry" />
        </mxCell>
        <mxCell id="Y_5bH8ewrt_cbjXBQILO-22" style="edgeStyle=orthogonalEdgeStyle;rounded=0;orthogonalLoop=1;jettySize=auto;html=1;entryX=0.5;entryY=0;entryDx=0;entryDy=0;" edge="1" parent="mvioNwK95yMqdUQ73LqQ-36" target="Y_5bH8ewrt_cbjXBQILO-20">
          <mxGeometry relative="1" as="geometry">
            <mxPoint x="379.977528089888" y="305.001235955056" as="sourcePoint" />
            <mxPoint x="470" y="314.99" as="targetPoint" />
            <Array as="points">
              <mxPoint x="470" y="305" />
            </Array>
          </mxGeometry>
        </mxCell>
        <mxCell id="Y_5bH8ewrt_cbjXBQILO-25" style="edgeStyle=orthogonalEdgeStyle;rounded=0;orthogonalLoop=1;jettySize=auto;html=1;entryX=0.5;entryY=0;entryDx=0;entryDy=0;" edge="1" parent="mvioNwK95yMqdUQ73LqQ-36" target="Y_5bH8ewrt_cbjXBQILO-24">
          <mxGeometry relative="1" as="geometry">
            <mxPoint x="300.0044444444446" y="305.0022222222224" as="sourcePoint" />
            <mxPoint x="249.96" y="314.98" as="targetPoint" />
            <Array as="points">
              <mxPoint x="250" y="305" />
            </Array>
          </mxGeometry>
        </mxCell>
        <mxCell id="Y_5bH8ewrt_cbjXBQILO-18" value="Have noodles?" style="rhombus;whiteSpace=wrap;html=1;" vertex="1" parent="mvioNwK95yMqdUQ73LqQ-36">
          <mxGeometry x="290" y="280" width="100" height="50" as="geometry" />
        </mxCell>
        <mxCell id="Y_5bH8ewrt_cbjXBQILO-56" value="" style="edgeStyle=orthogonalEdgeStyle;rounded=0;orthogonalLoop=1;jettySize=auto;html=1;" edge="1" parent="mvioNwK95yMqdUQ73LqQ-36" source="Y_5bH8ewrt_cbjXBQILO-20" target="Y_5bH8ewrt_cbjXBQILO-55">
          <mxGeometry relative="1" as="geometry" />
        </mxCell>
        <mxCell id="Y_5bH8ewrt_cbjXBQILO-20" value="Call to the sibling &amp;amp; tell them that no noodles" style="whiteSpace=wrap;html=1;" vertex="1" parent="mvioNwK95yMqdUQ73LqQ-36">
          <mxGeometry x="390" y="320" width="160" height="30" as="geometry" />
        </mxCell>
        <mxCell id="Y_5bH8ewrt_cbjXBQILO-23" value="No" style="text;html=1;align=center;verticalAlign=middle;resizable=0;points=[];autosize=1;strokeColor=none;fillColor=none;" vertex="1" parent="mvioNwK95yMqdUQ73LqQ-36">
          <mxGeometry x="420" y="280" width="40" height="30" as="geometry" />
        </mxCell>
        <mxCell id="Y_5bH8ewrt_cbjXBQILO-29" style="edgeStyle=orthogonalEdgeStyle;rounded=0;orthogonalLoop=1;jettySize=auto;html=1;entryX=1;entryY=0.5;entryDx=0;entryDy=0;" edge="1" parent="mvioNwK95yMqdUQ73LqQ-36" source="Y_5bH8ewrt_cbjXBQILO-24" target="Y_5bH8ewrt_cbjXBQILO-26">
          <mxGeometry relative="1" as="geometry">
            <Array as="points">
              <mxPoint x="250" y="409" />
            </Array>
          </mxGeometry>
        </mxCell>
        <mxCell id="Y_5bH8ewrt_cbjXBQILO-24" value="buy noodles &amp;amp; go back home" style="whiteSpace=wrap;html=1;" vertex="1" parent="mvioNwK95yMqdUQ73LqQ-36">
          <mxGeometry x="190" y="320" width="120" height="30" as="geometry" />
        </mxCell>
        <mxCell id="Y_5bH8ewrt_cbjXBQILO-26" value="" style="ellipse;whiteSpace=wrap;html=1;" vertex="1" parent="mvioNwK95yMqdUQ73LqQ-36">
          <mxGeometry x="160" y="404" width="10" height="10" as="geometry" />
        </mxCell>
        <mxCell id="Y_5bH8ewrt_cbjXBQILO-41" style="edgeStyle=orthogonalEdgeStyle;rounded=0;orthogonalLoop=1;jettySize=auto;html=1;entryX=0.5;entryY=0;entryDx=0;entryDy=0;" edge="1" parent="mvioNwK95yMqdUQ73LqQ-36" source="Y_5bH8ewrt_cbjXBQILO-30" target="Y_5bH8ewrt_cbjXBQILO-40">
          <mxGeometry relative="1" as="geometry" />
        </mxCell>
        <mxCell id="Y_5bH8ewrt_cbjXBQILO-30" value="Pour water in the pot" style="whiteSpace=wrap;html=1;" vertex="1" parent="mvioNwK95yMqdUQ73LqQ-36">
          <mxGeometry x="20" y="504" width="120" height="26" as="geometry" />
        </mxCell>
        <mxCell id="Y_5bH8ewrt_cbjXBQILO-33" value="Yes" style="text;html=1;align=center;verticalAlign=middle;resizable=0;points=[];autosize=1;strokeColor=none;fillColor=none;" vertex="1" parent="mvioNwK95yMqdUQ73LqQ-36">
          <mxGeometry x="30" y="460" width="40" height="30" as="geometry" />
        </mxCell>
        <mxCell id="Y_5bH8ewrt_cbjXBQILO-42" style="edgeStyle=orthogonalEdgeStyle;rounded=0;orthogonalLoop=1;jettySize=auto;html=1;entryX=1;entryY=0.5;entryDx=0;entryDy=0;" edge="1" parent="mvioNwK95yMqdUQ73LqQ-36" source="Y_5bH8ewrt_cbjXBQILO-34" target="Y_5bH8ewrt_cbjXBQILO-26">
          <mxGeometry relative="1" as="geometry">
            <Array as="points">
              <mxPoint x="370" y="498" />
              <mxPoint x="370" y="409" />
            </Array>
          </mxGeometry>
        </mxCell>
        <mxCell id="Y_5bH8ewrt_cbjXBQILO-34" value="Ask the sibling for the water" style="whiteSpace=wrap;html=1;" vertex="1" parent="mvioNwK95yMqdUQ73LqQ-36">
          <mxGeometry x="190" y="490" width="150" height="16" as="geometry" />
        </mxCell>
        <mxCell id="Y_5bH8ewrt_cbjXBQILO-36" value="No" style="text;html=1;align=center;verticalAlign=middle;resizable=0;points=[];autosize=1;strokeColor=none;fillColor=none;" vertex="1" parent="mvioNwK95yMqdUQ73LqQ-36">
          <mxGeometry x="220" y="434" width="40" height="30" as="geometry" />
        </mxCell>
        <mxCell id="Y_5bH8ewrt_cbjXBQILO-37" value="No" style="text;html=1;align=center;verticalAlign=middle;resizable=0;points=[];autosize=1;strokeColor=none;fillColor=none;" vertex="1" parent="mvioNwK95yMqdUQ73LqQ-36">
          <mxGeometry x="372.5" y="94" width="40" height="30" as="geometry" />
        </mxCell>
        <mxCell id="Y_5bH8ewrt_cbjXBQILO-38" style="edgeStyle=orthogonalEdgeStyle;rounded=0;orthogonalLoop=1;jettySize=auto;html=1;exitX=1;exitY=0.5;exitDx=0;exitDy=0;entryX=0.498;entryY=-0.124;entryDx=0;entryDy=0;entryPerimeter=0;" edge="1" parent="mvioNwK95yMqdUQ73LqQ-36" source="Y_5bH8ewrt_cbjXBQILO-3" target="Y_5bH8ewrt_cbjXBQILO-34">
          <mxGeometry relative="1" as="geometry" />
        </mxCell>
        <mxCell id="Y_5bH8ewrt_cbjXBQILO-39" style="edgeStyle=orthogonalEdgeStyle;rounded=0;orthogonalLoop=1;jettySize=auto;html=1;entryX=0.47;entryY=0.01;entryDx=0;entryDy=0;entryPerimeter=0;" edge="1" parent="mvioNwK95yMqdUQ73LqQ-36" source="Y_5bH8ewrt_cbjXBQILO-3" target="Y_5bH8ewrt_cbjXBQILO-30">
          <mxGeometry relative="1" as="geometry">
            <Array as="points">
              <mxPoint x="76" y="460" />
            </Array>
          </mxGeometry>
        </mxCell>
        <mxCell id="Y_5bH8ewrt_cbjXBQILO-44" style="edgeStyle=orthogonalEdgeStyle;rounded=0;orthogonalLoop=1;jettySize=auto;html=1;entryX=0.5;entryY=0;entryDx=0;entryDy=0;" edge="1" parent="mvioNwK95yMqdUQ73LqQ-36" source="Y_5bH8ewrt_cbjXBQILO-40" target="Y_5bH8ewrt_cbjXBQILO-43">
          <mxGeometry relative="1" as="geometry">
            <Array as="points">
              <mxPoint x="80" y="627" />
            </Array>
          </mxGeometry>
        </mxCell>
        <mxCell id="Y_5bH8ewrt_cbjXBQILO-47" style="edgeStyle=orthogonalEdgeStyle;rounded=0;orthogonalLoop=1;jettySize=auto;html=1;entryX=0.5;entryY=0;entryDx=0;entryDy=0;" edge="1" parent="mvioNwK95yMqdUQ73LqQ-36" target="Y_5bH8ewrt_cbjXBQILO-46">
          <mxGeometry relative="1" as="geometry">
            <mxPoint x="217.40594594594572" y="627.0270270270271" as="sourcePoint" />
            <mxPoint x="254.96" y="652" as="targetPoint" />
            <Array as="points">
              <mxPoint x="260" y="627" />
              <mxPoint x="260" y="652" />
            </Array>
          </mxGeometry>
        </mxCell>
        <mxCell id="Y_5bH8ewrt_cbjXBQILO-40" value="Can turn on the gas?" style="rhombus;whiteSpace=wrap;html=1;" vertex="1" parent="mvioNwK95yMqdUQ73LqQ-36">
          <mxGeometry x="120" y="602" width="100" height="50" as="geometry" />
        </mxCell>
        <mxCell id="Y_5bH8ewrt_cbjXBQILO-71" style="edgeStyle=orthogonalEdgeStyle;rounded=0;orthogonalLoop=1;jettySize=auto;html=1;" edge="1" parent="mvioNwK95yMqdUQ73LqQ-36" source="Y_5bH8ewrt_cbjXBQILO-43" target="Y_5bH8ewrt_cbjXBQILO-70">
          <mxGeometry relative="1" as="geometry" />
        </mxCell>
        <mxCell id="Y_5bH8ewrt_cbjXBQILO-43" value="Pot on the stove" style="whiteSpace=wrap;html=1;" vertex="1" parent="mvioNwK95yMqdUQ73LqQ-36">
          <mxGeometry x="20" y="922" width="120" height="26" as="geometry" />
        </mxCell>
        <mxCell id="Y_5bH8ewrt_cbjXBQILO-45" value="Yes" style="text;html=1;align=center;verticalAlign=middle;resizable=0;points=[];autosize=1;strokeColor=none;fillColor=none;" vertex="1" parent="mvioNwK95yMqdUQ73LqQ-36">
          <mxGeometry x="40" y="652" width="40" height="30" as="geometry" />
        </mxCell>
        <mxCell id="Y_5bH8ewrt_cbjXBQILO-50" style="edgeStyle=orthogonalEdgeStyle;rounded=0;orthogonalLoop=1;jettySize=auto;html=1;entryX=0.5;entryY=0;entryDx=0;entryDy=0;" edge="1" parent="mvioNwK95yMqdUQ73LqQ-36" source="Y_5bH8ewrt_cbjXBQILO-46" target="Y_5bH8ewrt_cbjXBQILO-49">
          <mxGeometry relative="1" as="geometry">
            <Array as="points">
              <mxPoint x="360" y="687" />
            </Array>
          </mxGeometry>
        </mxCell>
        <mxCell id="Y_5bH8ewrt_cbjXBQILO-53" style="edgeStyle=orthogonalEdgeStyle;rounded=0;orthogonalLoop=1;jettySize=auto;html=1;entryX=0.5;entryY=0;entryDx=0;entryDy=0;" edge="1" parent="mvioNwK95yMqdUQ73LqQ-36" source="Y_5bH8ewrt_cbjXBQILO-46" target="Y_5bH8ewrt_cbjXBQILO-52">
          <mxGeometry relative="1" as="geometry">
            <Array as="points">
              <mxPoint x="200" y="762" />
            </Array>
          </mxGeometry>
        </mxCell>
        <mxCell id="Y_5bH8ewrt_cbjXBQILO-46" value="Check the gas if it run out?" style="rhombus;whiteSpace=wrap;html=1;" vertex="1" parent="mvioNwK95yMqdUQ73LqQ-36">
          <mxGeometry x="200" y="662" width="120" height="50" as="geometry" />
        </mxCell>
        <mxCell id="Y_5bH8ewrt_cbjXBQILO-48" value="No" style="text;html=1;align=center;verticalAlign=middle;resizable=0;points=[];autosize=1;strokeColor=none;fillColor=none;" vertex="1" parent="mvioNwK95yMqdUQ73LqQ-36">
          <mxGeometry x="251" y="622" width="40" height="30" as="geometry" />
        </mxCell>
        <mxCell id="Y_5bH8ewrt_cbjXBQILO-66" value="" style="edgeStyle=orthogonalEdgeStyle;rounded=0;orthogonalLoop=1;jettySize=auto;html=1;" edge="1" parent="mvioNwK95yMqdUQ73LqQ-36" source="Y_5bH8ewrt_cbjXBQILO-49" target="Y_5bH8ewrt_cbjXBQILO-65">
          <mxGeometry relative="1" as="geometry" />
        </mxCell>
        <mxCell id="Y_5bH8ewrt_cbjXBQILO-49" value="Call the sibling to refill" style="whiteSpace=wrap;html=1;" vertex="1" parent="mvioNwK95yMqdUQ73LqQ-36">
          <mxGeometry x="300" y="722" width="120" height="18" as="geometry" />
        </mxCell>
        <mxCell id="Y_5bH8ewrt_cbjXBQILO-51" value="Yes" style="text;html=1;align=center;verticalAlign=middle;resizable=0;points=[];autosize=1;strokeColor=none;fillColor=none;" vertex="1" parent="mvioNwK95yMqdUQ73LqQ-36">
          <mxGeometry x="327.5" y="662" width="40" height="30" as="geometry" />
        </mxCell>
        <mxCell id="Y_5bH8ewrt_cbjXBQILO-68" style="edgeStyle=orthogonalEdgeStyle;rounded=0;orthogonalLoop=1;jettySize=auto;html=1;entryX=1;entryY=0.5;entryDx=0;entryDy=0;" edge="1" parent="mvioNwK95yMqdUQ73LqQ-36" source="Y_5bH8ewrt_cbjXBQILO-52" target="Y_5bH8ewrt_cbjXBQILO-67">
          <mxGeometry relative="1" as="geometry">
            <mxPoint x="90" y="882" as="targetPoint" />
            <Array as="points">
              <mxPoint x="200" y="877" />
            </Array>
          </mxGeometry>
        </mxCell>
        <mxCell id="Y_5bH8ewrt_cbjXBQILO-52" value="Call adult to help turn on" style="whiteSpace=wrap;html=1;" vertex="1" parent="mvioNwK95yMqdUQ73LqQ-36">
          <mxGeometry x="130" y="772" width="140" height="30" as="geometry" />
        </mxCell>
        <mxCell id="Y_5bH8ewrt_cbjXBQILO-54" value="No" style="text;html=1;align=center;verticalAlign=middle;resizable=0;points=[];autosize=1;strokeColor=none;fillColor=none;" vertex="1" parent="mvioNwK95yMqdUQ73LqQ-36">
          <mxGeometry x="190" y="728" width="40" height="30" as="geometry" />
        </mxCell>
        <mxCell id="Y_5bH8ewrt_cbjXBQILO-59" style="edgeStyle=orthogonalEdgeStyle;rounded=0;orthogonalLoop=1;jettySize=auto;html=1;entryX=1;entryY=0.5;entryDx=0;entryDy=0;" edge="1" parent="mvioNwK95yMqdUQ73LqQ-36" source="Y_5bH8ewrt_cbjXBQILO-55" target="Y_5bH8ewrt_cbjXBQILO-58">
          <mxGeometry relative="1" as="geometry">
            <Array as="points">
              <mxPoint x="600" y="428" />
              <mxPoint x="600" y="261" />
            </Array>
          </mxGeometry>
        </mxCell>
        <mxCell id="Y_5bH8ewrt_cbjXBQILO-55" value="Go to another store" style="whiteSpace=wrap;html=1;" vertex="1" parent="mvioNwK95yMqdUQ73LqQ-36">
          <mxGeometry x="410" y="415" width="120" height="25" as="geometry" />
        </mxCell>
        <mxCell id="Y_5bH8ewrt_cbjXBQILO-57" value="Yes" style="text;html=1;align=center;verticalAlign=middle;resizable=0;points=[];autosize=1;strokeColor=none;fillColor=none;" vertex="1" parent="mvioNwK95yMqdUQ73LqQ-36">
          <mxGeometry x="242.5" y="280" width="40" height="30" as="geometry" />
        </mxCell>
        <mxCell id="Y_5bH8ewrt_cbjXBQILO-58" value="" style="ellipse;whiteSpace=wrap;html=1;" vertex="1" parent="mvioNwK95yMqdUQ73LqQ-36">
          <mxGeometry x="335" y="256" width="10" height="10" as="geometry" />
        </mxCell>
        <mxCell id="Y_5bH8ewrt_cbjXBQILO-64" style="edgeStyle=orthogonalEdgeStyle;rounded=0;orthogonalLoop=1;jettySize=auto;html=1;entryX=1;entryY=0.5;entryDx=0;entryDy=0;" edge="1" parent="mvioNwK95yMqdUQ73LqQ-36" source="Y_5bH8ewrt_cbjXBQILO-61" target="Y_5bH8ewrt_cbjXBQILO-63">
          <mxGeometry relative="1" as="geometry">
            <Array as="points">
              <mxPoint x="760" y="130" />
            </Array>
          </mxGeometry>
        </mxCell>
        <mxCell id="Y_5bH8ewrt_cbjXBQILO-61" value="Got money" style="whiteSpace=wrap;html=1;" vertex="1" parent="mvioNwK95yMqdUQ73LqQ-36">
          <mxGeometry x="710" y="212.5" width="120" height="25" as="geometry" />
        </mxCell>
        <mxCell id="Y_5bH8ewrt_cbjXBQILO-63" value="" style="ellipse;whiteSpace=wrap;html=1;" vertex="1" parent="mvioNwK95yMqdUQ73LqQ-36">
          <mxGeometry x="412.5" y="125" width="10" height="10" as="geometry" />
        </mxCell>
        <mxCell id="Y_5bH8ewrt_cbjXBQILO-69" style="edgeStyle=orthogonalEdgeStyle;rounded=0;orthogonalLoop=1;jettySize=auto;html=1;entryX=1;entryY=0.5;entryDx=0;entryDy=0;" edge="1" parent="mvioNwK95yMqdUQ73LqQ-36" source="Y_5bH8ewrt_cbjXBQILO-65" target="Y_5bH8ewrt_cbjXBQILO-67">
          <mxGeometry relative="1" as="geometry">
            <mxPoint x="90" y="892" as="targetPoint" />
            <Array as="points">
              <mxPoint x="360" y="877" />
            </Array>
          </mxGeometry>
        </mxCell>
        <mxCell id="Y_5bH8ewrt_cbjXBQILO-65" value="Gas refilled" style="whiteSpace=wrap;html=1;" vertex="1" parent="mvioNwK95yMqdUQ73LqQ-36">
          <mxGeometry x="300" y="799" width="120" height="21" as="geometry" />
        </mxCell>
        <mxCell id="Y_5bH8ewrt_cbjXBQILO-67" value="" style="ellipse;whiteSpace=wrap;html=1;" vertex="1" parent="mvioNwK95yMqdUQ73LqQ-36">
          <mxGeometry x="75" y="872" width="10" height="10" as="geometry" />
        </mxCell>
        <mxCell id="Y_5bH8ewrt_cbjXBQILO-80" style="edgeStyle=orthogonalEdgeStyle;rounded=0;orthogonalLoop=1;jettySize=auto;html=1;entryX=0.5;entryY=0;entryDx=0;entryDy=0;" edge="1" parent="mvioNwK95yMqdUQ73LqQ-36" source="Y_5bH8ewrt_cbjXBQILO-70" target="Y_5bH8ewrt_cbjXBQILO-72">
          <mxGeometry relative="1" as="geometry">
            <Array as="points">
              <mxPoint x="183" y="1002" />
            </Array>
          </mxGeometry>
        </mxCell>
        <mxCell id="Y_5bH8ewrt_cbjXBQILO-81" style="edgeStyle=orthogonalEdgeStyle;rounded=0;orthogonalLoop=1;jettySize=auto;html=1;entryX=0.521;entryY=0;entryDx=0;entryDy=0;entryPerimeter=0;" edge="1" parent="mvioNwK95yMqdUQ73LqQ-36" target="Y_5bH8ewrt_cbjXBQILO-75">
          <mxGeometry relative="1" as="geometry">
            <mxPoint x="300" y="1002" as="sourcePoint" />
            <mxPoint x="427.5" y="1002" as="targetPoint" />
          </mxGeometry>
        </mxCell>
        <mxCell id="Y_5bH8ewrt_cbjXBQILO-70" value="Is the water boiled?" style="rhombus;whiteSpace=wrap;html=1;" vertex="1" parent="mvioNwK95yMqdUQ73LqQ-36">
          <mxGeometry x="220" y="962" width="140" height="80" as="geometry" />
        </mxCell>
        <mxCell id="Y_5bH8ewrt_cbjXBQILO-85" style="edgeStyle=orthogonalEdgeStyle;rounded=0;orthogonalLoop=1;jettySize=auto;html=1;entryX=0.5;entryY=0;entryDx=0;entryDy=0;" edge="1" parent="mvioNwK95yMqdUQ73LqQ-36" source="Y_5bH8ewrt_cbjXBQILO-92" target="Y_5bH8ewrt_cbjXBQILO-84">
          <mxGeometry relative="1" as="geometry" />
        </mxCell>
        <mxCell id="Y_5bH8ewrt_cbjXBQILO-72" value="put the instant noodles in." style="whiteSpace=wrap;html=1;" vertex="1" parent="mvioNwK95yMqdUQ73LqQ-36">
          <mxGeometry x="122.5" y="1052" width="120" height="28" as="geometry" />
        </mxCell>
        <mxCell id="Y_5bH8ewrt_cbjXBQILO-74" value="Yes" style="text;html=1;align=center;verticalAlign=middle;resizable=0;points=[];autosize=1;strokeColor=none;fillColor=none;" vertex="1" parent="mvioNwK95yMqdUQ73LqQ-36">
          <mxGeometry x="145" y="1012" width="40" height="30" as="geometry" />
        </mxCell>
        <mxCell id="Y_5bH8ewrt_cbjXBQILO-83" style="edgeStyle=orthogonalEdgeStyle;rounded=0;orthogonalLoop=1;jettySize=auto;html=1;entryX=1;entryY=0.5;entryDx=0;entryDy=0;" edge="1" parent="mvioNwK95yMqdUQ73LqQ-36" source="Y_5bH8ewrt_cbjXBQILO-75" target="Y_5bH8ewrt_cbjXBQILO-79">
          <mxGeometry relative="1" as="geometry">
            <Array as="points">
              <mxPoint x="500" y="1052" />
              <mxPoint x="500" y="935" />
            </Array>
          </mxGeometry>
        </mxCell>
        <mxCell id="Y_5bH8ewrt_cbjXBQILO-75" value="Wait." style="whiteSpace=wrap;html=1;" vertex="1" parent="mvioNwK95yMqdUQ73LqQ-36">
          <mxGeometry x="357.5" y="1042" width="120" height="20" as="geometry" />
        </mxCell>
        <mxCell id="Y_5bH8ewrt_cbjXBQILO-79" value="" style="ellipse;whiteSpace=wrap;html=1;" vertex="1" parent="mvioNwK95yMqdUQ73LqQ-36">
          <mxGeometry x="285" y="930" width="10" height="10" as="geometry" />
        </mxCell>
        <mxCell id="Y_5bH8ewrt_cbjXBQILO-82" value="No" style="text;html=1;align=center;verticalAlign=middle;resizable=0;points=[];autosize=1;strokeColor=none;fillColor=none;" vertex="1" parent="mvioNwK95yMqdUQ73LqQ-36">
          <mxGeometry x="372.5" y="982" width="40" height="30" as="geometry" />
        </mxCell>
        <mxCell id="Y_5bH8ewrt_cbjXBQILO-89" style="edgeStyle=orthogonalEdgeStyle;rounded=0;orthogonalLoop=1;jettySize=auto;html=1;entryX=0.5;entryY=0;entryDx=0;entryDy=0;" edge="1" parent="mvioNwK95yMqdUQ73LqQ-36" source="Y_5bH8ewrt_cbjXBQILO-84" target="Y_5bH8ewrt_cbjXBQILO-88">
          <mxGeometry relative="1" as="geometry" />
        </mxCell>
        <mxCell id="Y_5bH8ewrt_cbjXBQILO-96" style="edgeStyle=orthogonalEdgeStyle;rounded=0;orthogonalLoop=1;jettySize=auto;html=1;entryX=0;entryY=0.5;entryDx=0;entryDy=0;" edge="1" parent="mvioNwK95yMqdUQ73LqQ-36" source="Y_5bH8ewrt_cbjXBQILO-84" target="Y_5bH8ewrt_cbjXBQILO-94">
          <mxGeometry relative="1" as="geometry" />
        </mxCell>
        <mxCell id="Y_5bH8ewrt_cbjXBQILO-84" value="have seasoning?" style="rhombus;whiteSpace=wrap;html=1;" vertex="1" parent="mvioNwK95yMqdUQ73LqQ-36">
          <mxGeometry x="117.5" y="1150" width="130" height="52" as="geometry" />
        </mxCell>
        <mxCell id="Y_5bH8ewrt_cbjXBQILO-103" style="edgeStyle=orthogonalEdgeStyle;rounded=0;orthogonalLoop=1;jettySize=auto;html=1;entryX=1;entryY=0.5;entryDx=0;entryDy=0;" edge="1" parent="mvioNwK95yMqdUQ73LqQ-36" source="Y_5bH8ewrt_cbjXBQILO-86" target="Y_5bH8ewrt_cbjXBQILO-92">
          <mxGeometry relative="1" as="geometry">
            <Array as="points">
              <mxPoint x="800" y="1255" />
              <mxPoint x="800" y="1109" />
            </Array>
          </mxGeometry>
        </mxCell>
        <mxCell id="Y_5bH8ewrt_cbjXBQILO-86" value="use other seasoning in the kitchen" style="whiteSpace=wrap;html=1;" vertex="1" parent="mvioNwK95yMqdUQ73LqQ-36">
          <mxGeometry x="284.5" y="1240" width="120" height="30" as="geometry" />
        </mxCell>
        <mxCell id="Y_5bH8ewrt_cbjXBQILO-108" value="" style="edgeStyle=orthogonalEdgeStyle;rounded=0;orthogonalLoop=1;jettySize=auto;html=1;" edge="1" parent="mvioNwK95yMqdUQ73LqQ-36" source="Y_5bH8ewrt_cbjXBQILO-88" target="Y_5bH8ewrt_cbjXBQILO-107">
          <mxGeometry relative="1" as="geometry" />
        </mxCell>
        <mxCell id="Y_5bH8ewrt_cbjXBQILO-88" value="Put in the pot" style="whiteSpace=wrap;html=1;" vertex="1" parent="mvioNwK95yMqdUQ73LqQ-36">
          <mxGeometry x="122.5" y="1240" width="120" height="20" as="geometry" />
        </mxCell>
        <mxCell id="Y_5bH8ewrt_cbjXBQILO-90" value="Yes" style="text;html=1;align=center;verticalAlign=middle;resizable=0;points=[];autosize=1;strokeColor=none;fillColor=none;" vertex="1" parent="mvioNwK95yMqdUQ73LqQ-36">
          <mxGeometry x="140" y="1202" width="40" height="30" as="geometry" />
        </mxCell>
        <mxCell id="Y_5bH8ewrt_cbjXBQILO-91" value="No" style="text;html=1;align=center;verticalAlign=middle;resizable=0;points=[];autosize=1;strokeColor=none;fillColor=none;" vertex="1" parent="mvioNwK95yMqdUQ73LqQ-36">
          <mxGeometry x="245" y="1150" width="40" height="30" as="geometry" />
        </mxCell>
        <mxCell id="Y_5bH8ewrt_cbjXBQILO-92" value="" style="ellipse;whiteSpace=wrap;html=1;" vertex="1" parent="mvioNwK95yMqdUQ73LqQ-36">
          <mxGeometry x="177.5" y="1104" width="10" height="10" as="geometry" />
        </mxCell>
        <mxCell id="Y_5bH8ewrt_cbjXBQILO-93" value="" style="edgeStyle=orthogonalEdgeStyle;rounded=0;orthogonalLoop=1;jettySize=auto;html=1;entryX=0.5;entryY=0;entryDx=0;entryDy=0;" edge="1" parent="mvioNwK95yMqdUQ73LqQ-36" source="Y_5bH8ewrt_cbjXBQILO-72" target="Y_5bH8ewrt_cbjXBQILO-92">
          <mxGeometry relative="1" as="geometry">
            <mxPoint x="-577" y="1730" as="sourcePoint" />
            <mxPoint x="-577" y="1800" as="targetPoint" />
          </mxGeometry>
        </mxCell>
        <mxCell id="Y_5bH8ewrt_cbjXBQILO-99" style="edgeStyle=orthogonalEdgeStyle;rounded=0;orthogonalLoop=1;jettySize=auto;html=1;entryX=0.5;entryY=0;entryDx=0;entryDy=0;" edge="1" parent="mvioNwK95yMqdUQ73LqQ-36" source="Y_5bH8ewrt_cbjXBQILO-94" target="Y_5bH8ewrt_cbjXBQILO-86">
          <mxGeometry relative="1" as="geometry" />
        </mxCell>
        <mxCell id="Y_5bH8ewrt_cbjXBQILO-101" style="edgeStyle=orthogonalEdgeStyle;rounded=0;orthogonalLoop=1;jettySize=auto;html=1;entryX=0;entryY=0.5;entryDx=0;entryDy=0;" edge="1" parent="mvioNwK95yMqdUQ73LqQ-36" source="Y_5bH8ewrt_cbjXBQILO-94" target="Y_5bH8ewrt_cbjXBQILO-100">
          <mxGeometry relative="1" as="geometry" />
        </mxCell>
        <mxCell id="Y_5bH8ewrt_cbjXBQILO-94" value="Other seasoning in the kitchen?" style="rhombus;whiteSpace=wrap;html=1;" vertex="1" parent="mvioNwK95yMqdUQ73LqQ-36">
          <mxGeometry x="282.5" y="1151" width="125" height="50" as="geometry" />
        </mxCell>
        <mxCell id="Y_5bH8ewrt_cbjXBQILO-98" value="Yes" style="text;html=1;align=center;verticalAlign=middle;resizable=0;points=[];autosize=1;strokeColor=none;fillColor=none;" vertex="1" parent="mvioNwK95yMqdUQ73LqQ-36">
          <mxGeometry x="300" y="1202" width="40" height="30" as="geometry" />
        </mxCell>
        <mxCell id="Y_5bH8ewrt_cbjXBQILO-105" value="" style="edgeStyle=orthogonalEdgeStyle;rounded=0;orthogonalLoop=1;jettySize=auto;html=1;" edge="1" parent="mvioNwK95yMqdUQ73LqQ-36" source="Y_5bH8ewrt_cbjXBQILO-100" target="Y_5bH8ewrt_cbjXBQILO-104">
          <mxGeometry relative="1" as="geometry" />
        </mxCell>
        <mxCell id="Y_5bH8ewrt_cbjXBQILO-100" value="tell adults that we run out seasoning&amp;nbsp;" style="whiteSpace=wrap;html=1;" vertex="1" parent="mvioNwK95yMqdUQ73LqQ-36">
          <mxGeometry x="440" y="1161.5" width="157.5" height="29" as="geometry" />
        </mxCell>
        <mxCell id="Y_5bH8ewrt_cbjXBQILO-102" value="No" style="text;html=1;align=center;verticalAlign=middle;resizable=0;points=[];autosize=1;strokeColor=none;fillColor=none;" vertex="1" parent="mvioNwK95yMqdUQ73LqQ-36">
          <mxGeometry x="404.5" y="1151" width="40" height="30" as="geometry" />
        </mxCell>
        <mxCell id="Y_5bH8ewrt_cbjXBQILO-106" style="edgeStyle=orthogonalEdgeStyle;rounded=0;orthogonalLoop=1;jettySize=auto;html=1;entryX=1;entryY=0.5;entryDx=0;entryDy=0;" edge="1" parent="mvioNwK95yMqdUQ73LqQ-36" source="Y_5bH8ewrt_cbjXBQILO-104" target="Y_5bH8ewrt_cbjXBQILO-92">
          <mxGeometry relative="1" as="geometry">
            <Array as="points">
              <mxPoint x="770" y="1176" />
              <mxPoint x="770" y="1109" />
            </Array>
          </mxGeometry>
        </mxCell>
        <mxCell id="Y_5bH8ewrt_cbjXBQILO-104" value="Got seasonings" style="whiteSpace=wrap;html=1;" vertex="1" parent="mvioNwK95yMqdUQ73LqQ-36">
          <mxGeometry x="640" y="1164" width="120" height="24" as="geometry" />
        </mxCell>
        <mxCell id="Y_5bH8ewrt_cbjXBQILO-110" style="edgeStyle=orthogonalEdgeStyle;rounded=0;orthogonalLoop=1;jettySize=auto;html=1;entryX=0.5;entryY=0;entryDx=0;entryDy=0;" edge="1" parent="mvioNwK95yMqdUQ73LqQ-36" source="Y_5bH8ewrt_cbjXBQILO-107" target="Y_5bH8ewrt_cbjXBQILO-109">
          <mxGeometry relative="1" as="geometry" />
        </mxCell>
        <mxCell id="Y_5bH8ewrt_cbjXBQILO-107" value="Boiled for 2-3 minutes" style="whiteSpace=wrap;html=1;" vertex="1" parent="mvioNwK95yMqdUQ73LqQ-36">
          <mxGeometry x="122.5" y="1320" width="120" height="30" as="geometry" />
        </mxCell>
        <mxCell id="Y_5bH8ewrt_cbjXBQILO-112" style="edgeStyle=orthogonalEdgeStyle;rounded=0;orthogonalLoop=1;jettySize=auto;html=1;entryX=0.5;entryY=0;entryDx=0;entryDy=0;" edge="1" parent="mvioNwK95yMqdUQ73LqQ-36" source="Y_5bH8ewrt_cbjXBQILO-109" target="Y_5bH8ewrt_cbjXBQILO-111">
          <mxGeometry relative="1" as="geometry" />
        </mxCell>
        <mxCell id="Y_5bH8ewrt_cbjXBQILO-109" value="turn off the gas" style="whiteSpace=wrap;html=1;" vertex="1" parent="mvioNwK95yMqdUQ73LqQ-36">
          <mxGeometry x="122.5" y="1370" width="120" height="30" as="geometry" />
        </mxCell>
        <mxCell id="Y_5bH8ewrt_cbjXBQILO-111" value="Put the noodles in the bowl" style="whiteSpace=wrap;html=1;" vertex="1" parent="mvioNwK95yMqdUQ73LqQ-36">
          <mxGeometry x="108.75" y="1420" width="147.5" height="30" as="geometry" />
        </mxCell>
        <mxCell id="Y_5bH8ewrt_cbjXBQILO-115" style="edgeStyle=orthogonalEdgeStyle;rounded=0;orthogonalLoop=1;jettySize=auto;html=1;entryX=0.5;entryY=0;entryDx=0;entryDy=0;" edge="1" parent="mvioNwK95yMqdUQ73LqQ-36" source="Y_5bH8ewrt_cbjXBQILO-113" target="mvioNwK95yMqdUQ73LqQ-69">
          <mxGeometry relative="1" as="geometry" />
        </mxCell>
        <mxCell id="Y_5bH8ewrt_cbjXBQILO-113" value="ready to serve" style="whiteSpace=wrap;html=1;" vertex="1" parent="mvioNwK95yMqdUQ73LqQ-36">
          <mxGeometry x="122.5" y="1490" width="120" height="30" as="geometry" />
        </mxCell>
        <mxCell id="Y_5bH8ewrt_cbjXBQILO-114" style="edgeStyle=orthogonalEdgeStyle;rounded=0;orthogonalLoop=1;jettySize=auto;html=1;entryX=0.5;entryY=0;entryDx=0;entryDy=0;" edge="1" parent="mvioNwK95yMqdUQ73LqQ-36" source="Y_5bH8ewrt_cbjXBQILO-111" target="Y_5bH8ewrt_cbjXBQILO-113">
          <mxGeometry relative="1" as="geometry" />
        </mxCell>
        <mxCell id="mvioNwK95yMqdUQ73LqQ-70" value="&lt;font data-font-src=&quot;https://fonts.googleapis.com/css?family=Sarabun&quot; face=&quot;Sarabun&quot;&gt;โจทย์ปัญหา&lt;/font&gt;" style="swimlane;whiteSpace=wrap;html=1;" parent="WIyWlLk6GJQsqaUBKTNV-1" vertex="1">
          <mxGeometry x="-732.5" y="320" width="665" height="310" as="geometry" />
        </mxCell>
        <mxCell id="mvioNwK95yMqdUQ73LqQ-71" value="&lt;p style=&quot;line-height: 120%;&quot;&gt;&lt;font data-font-src=&quot;https://fonts.googleapis.com/css?family=Sarabun&quot; face=&quot;Sarabun&quot; style=&quot;font-size: 14px;&quot;&gt;&lt;b&gt;&lt;u&gt;โจทย์&lt;/u&gt;&lt;/b&gt; จงเขียน Flowchart เพื่อแสดงขั้นตอนการต้มบะหมี่กึ่งสำเร็จรูป (โดยผู้อ่าน Flowchart คือน้องของคุณ&lt;br&gt;&amp;nbsp; &amp;nbsp; &amp;nbsp; &amp;nbsp; &amp;nbsp; ที่มีอายุ 5 ขวบและกำลังหยิบ Flowchart มาต้มมาม่าให้คุณรับประทาน โดยคุณจะไม่พูดอะไรกับน้องเลย)&lt;br&gt;&lt;/font&gt;&lt;br&gt;&lt;/p&gt;&lt;p style=&quot;line-height: 120%;&quot;&gt;&lt;font face=&quot;Sarabun&quot;&gt;&lt;b&gt;&lt;u&gt;หมายเหตุ&lt;/u&gt;&lt;/b&gt; ทุกขั้นตอนควรมีการอธิบายอย่างละเอียด และเตรียมแก้ไขสำหรับเหตุการณ์ที่อาจผิดพลาดในทุกขั้นตอน&lt;br&gt;&amp;nbsp; &amp;nbsp; &amp;nbsp; &amp;nbsp; &amp;nbsp; เช่น&lt;br&gt;&amp;nbsp; &amp;nbsp; &amp;nbsp; &amp;nbsp; &amp;nbsp; - กรณีให้น้องไปซื้อของที่ตลาด แต่ของหมด ควรดำเนินการอย่างไร?&lt;br&gt;&amp;nbsp; &amp;nbsp; &amp;nbsp; &amp;nbsp; &amp;nbsp; - กรณีให้น้องต้มน้ำ แต่น้ำยังไม่เดือด ควรใส่บะหมี่สำเร็จรูปลงไปเลยไหม&lt;br&gt;&amp;nbsp; &amp;nbsp; &amp;nbsp; &amp;nbsp; &amp;nbsp; - กรณีระหว่างทำกับข้าวแล้วแก้สหมด ควรดำเนินการอย่างไร?&lt;br&gt;&amp;nbsp; &amp;nbsp; &amp;nbsp; &amp;nbsp; &amp;nbsp; - กรณีน้องไปซื้อของ แต่จำนวนเงินไม่พอ ควรทำอย่างไร?&lt;br&gt;&amp;nbsp; &amp;nbsp; &amp;nbsp; &amp;nbsp; &amp;nbsp; - กรณีน้องต้มบะหมี่เสร็จ แต่พึ่งมาทราบภายหลังว่าในซองบะหมี่ไม่มีเครื่องปรุงมาด้วย ต้องทำอย่างไร?&lt;/font&gt;&lt;/p&gt;" style="text;html=1;align=left;verticalAlign=top;resizable=0;points=[];autosize=1;strokeColor=none;fillColor=none;fontSize=14;" parent="mvioNwK95yMqdUQ73LqQ-70" vertex="1">
          <mxGeometry x="15" y="20" width="650" height="240" as="geometry" />
        </mxCell>
      </root>
    </mxGraphModel>
  </diagram>
</mxfile>
